<svg width="100" height="100" viewBox="0 0 100 100" fill="none" xmlns="http://www.w3.org/2000/svg">
<g clip-path="url(#clip0_19:3)">
<path d="M50 93.75C38.3968 93.75 27.2688 89.1406 19.0641 80.9359C10.8594 72.7312 6.25 61.6032 6.25 50C6.25 38.3968 10.8594 27.2688 19.0641 19.0641C27.2688 10.8594 38.3968 6.25 50 6.25C61.6032 6.25 72.7312 10.8594 80.9359 19.0641C89.1406 27.2688 93.75 38.3968 93.75 50C93.75 61.6032 89.1406 72.7312 80.9359 80.9359C72.7312 89.1406 61.6032 93.75 50 93.75ZM50 100C63.2608 100 75.9785 94.7322 85.3553 85.3553C94.7322 75.9785 100 63.2608 100 50C100 36.7392 94.7322 24.0215 85.3553 14.6447C75.9785 5.26784 63.2608 0 50 0C36.7392 0 24.0215 5.26784 14.6447 14.6447C5.26784 24.0215 0 36.7392 0 50C0 63.2608 5.26784 75.9785 14.6447 85.3553C24.0215 94.7322 36.7392 100 50 100V100Z" fill="white"/>
<path d="M43.7625 68.75C43.7625 67.9292 43.9242 67.1165 44.2382 66.3582C44.5523 65.5999 45.0127 64.911 45.5931 64.3306C46.1734 63.7502 46.8624 63.2898 47.6207 62.9758C48.379 62.6617 49.1917 62.5 50.0125 62.5C50.8333 62.5 51.646 62.6617 52.4043 62.9758C53.1626 63.2898 53.8515 63.7502 54.4319 64.3306C55.0123 64.911 55.4727 65.5999 55.7867 66.3582C56.1008 67.1165 56.2625 67.9292 56.2625 68.75C56.2625 70.4076 55.604 71.9973 54.4319 73.1694C53.2598 74.3415 51.6701 75 50.0125 75C48.3549 75 46.7652 74.3415 45.5931 73.1694C44.421 71.9973 43.7625 70.4076 43.7625 68.75V68.75ZM44.375 31.2188C44.2918 30.4303 44.3752 29.6331 44.62 28.8789C44.8648 28.1248 45.2653 27.4305 45.7957 26.8412C46.3261 26.2518 46.9745 25.7806 47.6988 25.458C48.4231 25.1354 49.2071 24.9688 50 24.9688C50.7929 24.9688 51.5769 25.1354 52.3012 25.458C53.0255 25.7806 53.6738 26.2518 54.2043 26.8412C54.7347 27.4305 55.1352 28.1248 55.38 28.8789C55.6248 29.6331 55.7082 30.4303 55.625 31.2188L53.4375 53.1375C53.364 53.9986 52.97 54.8007 52.3335 55.3852C51.6969 55.9697 50.8642 56.2941 50 56.2941C49.1358 56.2941 48.3031 55.9697 47.6665 55.3852C47.03 54.8007 46.636 53.9986 46.5625 53.1375L44.375 31.2188Z" fill="white"/>
</g>
<defs>
<clipPath id="clip0_19:3">
<rect width="100" height="100" fill="white"/>
</clipPath>
</defs>
</svg>
