<svg width="28" height="28" viewBox="0 0 28 28" fill="none" xmlns="http://www.w3.org/2000/svg">
<path d="M23.3783 19.6665C26.3551 17.01 28.0001 14 28.0001 14C28.0001 14 22.7501 4.375 14.0001 4.375C12.3193 4.38079 10.6576 4.73099 9.11755 5.404L10.4651 6.75325C11.5981 6.34052 12.7942 6.12794 14.0001 6.125C17.7101 6.125 20.7883 8.169 23.0441 10.4248C24.1297 11.5162 25.1029 12.714 25.9491 14C25.8476 14.1523 25.7356 14.3203 25.6078 14.504C25.0216 15.344 24.1553 16.464 23.0441 17.5753C22.7553 17.864 22.4543 18.1493 22.1393 18.4258L23.3783 19.6665Z" fill="#0A0E0C"/>
<path d="M19.7698 16.058C20.1603 14.9657 20.2326 13.785 19.9783 12.6532C19.724 11.5215 19.1536 10.4852 18.3333 9.66493C17.5131 8.84469 16.4768 8.27424 15.345 8.01995C14.2133 7.76565 13.0325 7.83797 11.9403 8.22849L13.3805 9.66875C14.0531 9.57248 14.7388 9.63417 15.3833 9.84893C16.0279 10.0637 16.6136 10.4256 17.094 10.906C17.5744 11.3864 17.9363 11.9721 18.1511 12.6167C18.3658 13.2612 18.4275 13.947 18.3313 14.6195L19.7698 16.058ZM14.6195 18.3312L16.058 19.7697C14.9657 20.1603 13.785 20.2326 12.6532 19.9783C11.5215 19.724 10.4852 19.1535 9.66494 18.3333C8.84471 17.5131 8.27426 16.4768 8.01996 15.345C7.76567 14.2132 7.83799 13.0325 8.22851 11.9402L9.66876 13.3805C9.5725 14.053 9.63419 14.7388 9.84894 15.3833C10.0637 16.0279 10.4256 16.6136 10.906 17.094C11.3864 17.5744 11.9721 17.9363 12.6167 18.1511C13.2612 18.3658 13.947 18.4275 14.6195 18.3312V18.3312Z" fill="#0A0E0C"/>
<path d="M5.8625 9.5725C5.5475 9.8525 5.24475 10.136 4.956 10.4248C3.87038 11.5162 2.89716 12.714 2.051 14L2.39225 14.504C2.9785 15.344 3.84475 16.464 4.956 17.5753C7.21175 19.831 10.2917 21.875 14 21.875C15.253 21.875 16.4325 21.6423 17.535 21.245L18.8825 22.596C17.3424 23.269 15.6807 23.6192 14 23.625C5.25 23.625 0 14 0 14C0 14 1.64325 10.9883 4.62175 8.3335L5.86075 9.57425L5.8625 9.5725ZM23.8805 25.1195L2.8805 4.1195L4.1195 2.8805L25.1195 23.8805L23.8805 25.1195Z" fill="#0A0E0C"/>
</svg>
