<svg width="28" height="28" viewBox="0 0 28 28" fill="none" xmlns="http://www.w3.org/2000/svg">
<path d="M28 14C28 14 22.75 4.375 14 4.375C5.25 4.375 0 14 0 14C0 14 5.25 23.625 14 23.625C22.75 23.625 28 14 28 14ZM2.05275 14C2.8989 12.714 3.87212 11.5162 4.95775 10.4247C7.21 8.169 10.29 6.125 14 6.125C17.71 6.125 20.7883 8.169 23.044 10.4247C24.1296 11.5162 25.1028 12.714 25.949 14C25.8475 14.1522 25.7355 14.3203 25.6078 14.504C25.0215 15.344 24.1553 16.464 23.044 17.5753C20.7883 19.831 17.7082 21.875 14 21.875C10.29 21.875 7.21175 19.831 4.956 17.5753C3.87038 16.4838 2.89716 15.286 2.051 14H2.05275Z" fill="#0A0E0C"/>
<path d="M14 9.625C12.8397 9.625 11.7269 10.0859 10.9064 10.9064C10.0859 11.7269 9.625 12.8397 9.625 14C9.625 15.1603 10.0859 16.2731 10.9064 17.0936C11.7269 17.9141 12.8397 18.375 14 18.375C15.1603 18.375 16.2731 17.9141 17.0936 17.0936C17.9141 16.2731 18.375 15.1603 18.375 14C18.375 12.8397 17.9141 11.7269 17.0936 10.9064C16.2731 10.0859 15.1603 9.625 14 9.625ZM7.875 14C7.875 12.3755 8.52031 10.8176 9.66897 9.66897C10.8176 8.52031 12.3755 7.875 14 7.875C15.6245 7.875 17.1824 8.52031 18.331 9.66897C19.4797 10.8176 20.125 12.3755 20.125 14C20.125 15.6245 19.4797 17.1824 18.331 18.331C17.1824 19.4797 15.6245 20.125 14 20.125C12.3755 20.125 10.8176 19.4797 9.66897 18.331C8.52031 17.1824 7.875 15.6245 7.875 14Z" fill="#0A0E0C"/>
</svg>
