<svg width="32" height="32" viewBox="0 0 32 32" fill="none" xmlns="http://www.w3.org/2000/svg">
<g clip-path="url(#clip0_2:35)">
<path d="M6.06786e-07 16C-0.000685283 14.2384 0.580126 12.5257 1.6523 11.1279C2.72447 9.73013 4.22804 8.72531 5.92968 8.26942C7.63131 7.81352 9.43585 7.93204 11.0632 8.60658C12.6906 9.28113 14.0499 10.474 14.93 12H28C28.1314 11.9998 28.2616 12.0254 28.3831 12.0755C28.5045 12.1256 28.615 12.1992 28.708 12.292L31.708 15.292C31.8011 15.3849 31.875 15.4952 31.9254 15.6167C31.9758 15.7382 32.0018 15.8685 32.0018 16C32.0018 16.1315 31.9758 16.2618 31.9254 16.3833C31.875 16.5048 31.8011 16.6151 31.708 16.708L28.708 19.708C28.6151 19.8011 28.5048 19.875 28.3833 19.9254C28.2618 19.9758 28.1315 20.0018 28 20.0018C27.8685 20.0018 27.7382 19.9758 27.6167 19.9254C27.4952 19.875 27.3849 19.8011 27.292 19.708L26 18.414L24.708 19.708C24.6151 19.8011 24.5048 19.875 24.3833 19.9254C24.2618 19.9758 24.1315 20.0018 24 20.0018C23.8685 20.0018 23.7382 19.9758 23.6167 19.9254C23.4952 19.875 23.3849 19.8011 23.292 19.708L22 18.414L20.708 19.708C20.6151 19.8011 20.5048 19.875 20.3833 19.9254C20.2618 19.9758 20.1315 20.0018 20 20.0018C19.8685 20.0018 19.7382 19.9758 19.6167 19.9254C19.4952 19.875 19.3849 19.8011 19.292 19.708L18 18.414L16.708 19.708C16.615 19.8008 16.5045 19.8744 16.3831 19.9245C16.2616 19.9746 16.1314 20.0002 16 20H14.93C14.0499 21.526 12.6906 22.7189 11.0632 23.3934C9.43585 24.068 7.63131 24.1865 5.92968 23.7306C4.22804 23.2747 2.72447 22.2699 1.6523 20.8721C0.580126 19.4743 -0.000685283 17.7617 6.06786e-07 16ZM8 10C6.92628 10.0004 5.87234 10.2889 4.94814 10.8355C4.02393 11.382 3.26332 12.1666 2.74566 13.1073C2.22799 14.048 1.97224 15.1103 2.00508 16.1835C2.03793 17.2568 2.35816 18.3015 2.93238 19.2088C3.5066 20.116 4.31376 20.8526 5.26966 21.3416C6.22556 21.8306 7.29517 22.0542 8.3669 21.9889C9.43863 21.9237 10.4732 21.572 11.3627 20.9706C12.2522 20.3693 12.9641 19.5402 13.424 18.57C13.5052 18.3995 13.633 18.2555 13.7926 18.1546C13.9522 18.0538 14.1372 18.0002 14.326 18H15.586L17.292 16.292C17.3849 16.1989 17.4952 16.125 17.6167 16.0746C17.7382 16.0242 17.8685 15.9982 18 15.9982C18.1315 15.9982 18.2618 16.0242 18.3833 16.0746C18.5048 16.125 18.6151 16.1989 18.708 16.292L20 17.586L21.292 16.292C21.3849 16.1989 21.4952 16.125 21.6167 16.0746C21.7382 16.0242 21.8685 15.9982 22 15.9982C22.1315 15.9982 22.2618 16.0242 22.3833 16.0746C22.5048 16.125 22.6151 16.1989 22.708 16.292L24 17.586L25.292 16.292C25.3849 16.1989 25.4952 16.125 25.6167 16.0746C25.7382 16.0242 25.8685 15.9982 26 15.9982C26.1315 15.9982 26.2618 16.0242 26.3833 16.0746C26.5048 16.125 26.6151 16.1989 26.708 16.292L28 17.586L29.586 16L27.586 14H14.326C14.1372 13.9998 13.9522 13.9462 13.7926 13.8454C13.633 13.7445 13.5052 13.6005 13.424 13.43C12.9374 12.4034 12.1693 11.5361 11.2091 10.9289C10.2489 10.3217 9.13607 9.99957 8 10Z" fill="black"/>
<path d="M8 16C8 16.5304 7.78929 17.0391 7.41421 17.4142C7.03914 17.7893 6.53043 18 6 18C5.46957 18 4.96086 17.7893 4.58579 17.4142C4.21071 17.0391 4 16.5304 4 16C4 15.4696 4.21071 14.9609 4.58579 14.5858C4.96086 14.2107 5.46957 14 6 14C6.53043 14 7.03914 14.2107 7.41421 14.5858C7.78929 14.9609 8 15.4696 8 16Z" fill="black"/>
</g>
<defs>
<clipPath id="clip0_2:35">
<rect width="32" height="32" fill="white"/>
</clipPath>
</defs>
</svg>
