<svg width="1050" height="726" viewBox="0 0 1050 726" fill="none" xmlns="http://www.w3.org/2000/svg">
<path d="M253.057 662C97.4571 674 -22.4428 556 3.55716 419.5C3.55716 331.5 213.257 275.2 346.057 308C478.857 340.8 283.557 20.5 561.557 0C678.057 5.66667 878.657 36 749.057 112C619.457 188 857.724 247 993.057 267C1168.06 353 898.057 640.8 734.057 556C570.057 471.2 695.557 726 561.557 726C509.89 698 408.657 650 253.057 662Z" fill="#AAE9CF"/>
<g clip-path="url(#clip0_27:25)">
<path d="M79.1262 257.262C77.0441 257.914 74.8268 258.006 72.6978 257.528C70.5688 257.051 68.6033 256.021 66.9992 254.541C65.3951 253.062 64.2092 251.187 63.5608 249.103C62.9125 247.02 62.8246 244.803 63.306 242.674C70.5297 212.622 97.9976 139.128 198.064 108.217C241.409 94.8268 282.978 94.5982 321.564 107.532C353.308 118.128 374.381 134.71 384.461 142.725C387.022 144.751 388.673 147.712 389.052 150.955C389.43 154.199 388.504 157.46 386.478 160.021C386.453 160.053 386.427 160.085 386.402 160.116C384.321 162.685 381.314 164.334 378.03 164.707C374.745 165.08 371.445 164.147 368.841 162.11C350.578 147.72 295.157 104.005 205.334 131.752C117.628 158.845 93.8034 222.218 87.624 248.145C87.1547 250.287 86.1184 252.263 84.6234 253.867C83.1284 255.471 81.2298 256.644 79.1263 257.262L79.1262 257.262Z" fill="#307452"/>
<path d="M351.866 427.481C350.872 427.802 349.841 427.996 348.799 428.058C270.624 432.268 220.885 367.322 218.843 364.615L218.465 363.99C217.218 362.056 187.123 316.267 200.372 279.902C206.458 263.277 219.916 251.608 240.488 245.253C259.621 239.342 275.277 241.09 288.604 250.606C299.53 258.359 306.533 269.921 313.321 281.086C327.437 304.268 336.088 316.063 362.92 309.258C374.702 306.268 380.203 297.057 382.716 289.881C389.482 270.357 383.485 243.739 367.62 223.601C347.122 197.475 289.76 154.08 218.985 175.943C188.762 185.28 164.028 203.678 147.464 229.011C133.742 250.036 125.764 276.148 125.59 300.499C125.314 345.84 162.474 405.49 162.826 406.031C163.682 407.399 164.259 408.923 164.526 410.514C164.793 412.106 164.744 413.735 164.381 415.308C164.018 416.88 163.349 418.366 162.412 419.68C161.475 420.995 160.289 422.111 158.92 422.967C158.882 422.991 158.844 423.014 158.806 423.038C156.002 424.786 152.623 425.362 149.398 424.64C146.174 423.919 143.362 421.958 141.571 419.181C139.894 416.453 100.215 352.851 100.535 300.449C100.98 243.649 135.496 175.86 211.689 152.324C246.907 141.444 283.918 143.273 318.747 157.553C345.742 168.689 370.726 187.123 387.244 208.172C408.341 235.04 415.774 270.21 406.17 297.659C399.767 315.959 386.511 328.586 368.894 333.1C322.981 344.78 304.994 315.374 291.876 293.923C278.406 271.933 270.955 261.622 247.674 268.814C234.891 272.763 227.015 279.09 223.703 288.182C219.196 300.61 223.467 316.539 227.844 327.707C227.89 327.824 227.935 327.94 227.981 328.056C233.592 342.25 242.35 354.987 253.594 365.309C271.606 381.942 305.045 405.656 347.664 403.369C350.922 403.167 354.127 404.267 356.574 406.428C359.021 408.588 360.509 411.633 360.712 414.891C360.714 414.93 360.717 414.97 360.719 415.009C360.819 417.772 360.006 420.49 358.406 422.745C356.806 424.999 354.507 426.664 351.866 427.481L351.866 427.481Z" fill="#95CCB6"/>
<path d="M257.068 450.83C255.439 451.334 253.724 451.503 252.027 451.326C250.331 451.148 248.688 450.629 247.198 449.799C208.64 427.953 181.573 398.57 162.082 357.388L162.003 357.134C149.719 329.676 142.324 287.725 158.636 252.268C170.678 226.106 193.282 207.717 225.707 197.701C264.057 185.854 299.766 194.576 329.073 222.803C342.402 235.831 353.24 251.182 361.057 268.102C362.303 271.146 362.301 274.558 361.05 277.601C359.8 280.643 357.402 283.071 354.376 284.359C351.349 285.648 347.937 285.693 344.877 284.485C341.818 283.277 339.357 280.914 338.026 277.905C331.408 263.784 322.27 250.988 311.06 240.145C288.47 218.653 262.21 212.298 232.918 221.347C207.605 229.166 190.175 242.99 181.252 262.438C168.385 290.432 175.01 325.388 184.623 346.901C201.809 383.324 225.648 409.159 259.584 428.352C260.986 429.143 262.218 430.202 263.211 431.469C264.203 432.736 264.936 434.186 265.369 435.736C265.801 437.286 265.924 438.906 265.73 440.504C265.536 442.102 265.029 443.645 264.238 445.047C264.207 445.103 264.175 445.158 264.143 445.213C262.562 447.897 260.041 449.899 257.068 450.83V450.83Z" fill="#307452"/>
<path d="M261.128 327.717C269.937 327.717 277.078 320.577 277.078 311.768C277.078 302.96 269.937 295.819 261.128 295.819C252.32 295.819 245.179 302.96 245.179 311.768C245.179 320.577 252.32 327.717 261.128 327.717Z" fill="#307452"/>
<path d="M548.703 506.52C548.374 506.52 548.045 506.495 547.719 506.446C546.874 506.321 546.063 506.029 545.331 505.588C544.6 505.147 543.963 504.565 543.458 503.877L534.698 491.998C534.191 491.311 533.824 490.531 533.619 489.702C533.414 488.874 533.374 488.013 533.501 487.169C533.629 486.325 533.921 485.514 534.362 484.783C534.803 484.052 535.384 483.415 536.071 482.909L610.97 427.669C611.657 427.162 612.437 426.795 613.266 426.59C614.094 426.385 614.955 426.345 615.799 426.472C616.643 426.6 617.454 426.892 618.185 427.333C618.916 427.774 619.553 428.355 620.06 429.042L628.82 440.92C629.843 442.307 630.273 444.044 630.016 445.749C629.759 447.453 628.835 448.986 627.448 450.009L552.548 505.25C551.436 506.075 550.088 506.52 548.703 506.52V506.52Z" fill="#95CCB6"/>
<path d="M601.897 462.044L590.433 446.501C589.489 445.22 589.091 443.617 589.329 442.043C589.567 440.47 590.42 439.055 591.701 438.111L635.562 399.681C636.842 398.736 638.446 398.339 640.019 398.577C641.593 398.815 643.007 399.668 643.952 400.948L664.915 425.991C665.86 427.272 666.257 428.876 666.019 430.449C665.781 432.022 664.928 433.437 663.648 434.382L610.287 463.311C609.006 464.256 607.403 464.653 605.829 464.415C604.256 464.178 602.841 463.325 601.897 462.044Z" fill="#0A0E0C"/>
<path d="M672.373 628.252H657.615C655.891 628.25 654.239 627.564 653.021 626.346C651.802 625.127 651.117 623.475 651.115 621.752V498.737C651.117 497.014 651.802 495.361 653.021 494.143C654.239 492.924 655.891 492.239 657.615 492.237H672.373C674.097 492.239 675.749 492.924 676.967 494.143C678.186 495.361 678.871 497.014 678.873 498.737V621.752C678.871 623.475 678.186 625.127 676.967 626.346C675.749 627.564 674.097 628.25 672.373 628.252V628.252Z" fill="#95CCB6"/>
<path d="M701.566 628.252H686.806C685.083 628.25 683.431 627.564 682.212 626.346C680.993 625.127 680.308 623.475 680.306 621.752V498.737C680.308 497.014 680.993 495.361 682.212 494.143C683.431 492.924 685.083 492.239 686.806 492.237H701.566C703.289 492.239 704.941 492.924 706.16 494.143C707.378 495.361 708.064 497.014 708.066 498.737V621.752C708.064 623.475 707.378 625.127 706.16 626.346C704.941 627.564 703.289 628.25 701.566 628.252V628.252Z" fill="#95CCB6"/>
<path d="M839.955 626.351H515.923V628.591H839.955V626.351Z" fill="#3F3D56"/>
<path d="M673.216 347.262C702.774 347.262 726.736 323.3 726.736 293.742C726.736 264.185 702.774 240.223 673.216 240.223C643.659 240.223 619.697 264.185 619.697 293.742C619.697 323.3 643.659 347.262 673.216 347.262Z" fill="#95CCB6"/>
<path d="M756.072 565.175L725.078 427.529V395.008C725.078 392.886 724.235 390.851 722.735 389.351C721.235 387.851 719.2 387.008 717.078 387.008H687.388V366.095C687.388 365.044 687.181 364.004 686.779 363.033C686.377 362.063 685.788 361.181 685.045 360.438C684.302 359.695 683.42 359.106 682.449 358.704C681.479 358.302 680.438 358.095 679.388 358.095H663.388C662.337 358.095 661.297 358.302 660.326 358.704C659.356 359.106 658.474 359.695 657.731 360.438C656.988 361.181 656.399 362.063 655.997 363.033C655.595 364.004 655.388 365.044 655.388 366.095V387.008H625.697C623.576 387.008 621.541 387.851 620.041 389.351C618.54 390.851 617.697 392.886 617.697 395.008V566.095C617.698 567.121 617.896 568.137 618.282 569.088C618.643 570.796 619.566 572.335 620.902 573.46C622.239 574.584 623.913 575.23 625.659 575.294L751.083 579.476C758.579 579.672 761.98 569.923 756.072 565.175Z" fill="#0A0E0C"/>
<path d="M673.731 312.756C670.425 312.664 666.311 312.548 663.142 310.233C662.198 309.516 661.423 308.601 660.87 307.552C660.317 306.503 660 305.347 659.942 304.163C659.884 303.321 660.022 302.477 660.345 301.697C660.668 300.917 661.166 300.223 661.802 299.668C663.459 298.269 665.878 297.942 668.48 298.707L665.781 278.98L667.763 278.709L670.935 301.899L669.281 301.14C667.362 300.259 664.729 299.812 663.093 301.195C662.691 301.557 662.378 302.006 662.178 302.508C661.978 303.011 661.897 303.552 661.941 304.091C661.989 304.973 662.227 305.833 662.638 306.614C663.049 307.395 663.623 308.079 664.322 308.618C666.788 310.42 670.068 310.653 673.787 310.756L673.731 312.756Z" fill="#2F2E41"/>
<path d="M655.982 280.682H645.21V282.682H655.982V280.682Z" fill="#2F2E41"/>
<path d="M689.982 280.682H679.21V282.682H689.982V280.682Z" fill="#2F2E41"/>
<path d="M626.349 259.149C616.843 253.388 612.365 242.459 612.357 231.649C612.352 225.888 613.603 220.194 616.023 214.966C618.443 209.737 621.974 205.099 626.369 201.374C636.161 192.905 649.201 188.761 661.94 187.708C677.353 186.434 692.666 189.784 707.385 194.06C723.147 198.639 738.591 204.4 754.724 207.605C770.381 210.715 786.079 211.022 801.493 206.524C815.72 202.373 830.161 195.036 845.356 196.308C858.481 197.406 868.448 206.14 875.153 216.931C888.465 238.354 889.517 267.109 908.66 284.949C916.937 292.663 927.72 296.157 938.496 298.769C948.83 301.273 959.854 302.878 969.337 307.946C979.506 313.38 985.662 323.595 984.071 335.3C982.264 348.594 972.804 360.035 962.39 367.845C951.426 375.962 938.789 381.532 925.401 384.149C912.012 386.765 898.209 386.363 884.995 382.971C857.363 375.64 834.908 354.225 805.468 352.882C789.044 352.134 772.874 356.608 756.453 355.866C745.072 355.352 732.822 351.145 724.896 342.681C721.091 338.721 718.713 333.606 718.139 328.144C717.96 326.238 714.958 326.22 715.139 328.144C716.264 340.101 725.066 348.933 735.569 353.788C741.098 356.325 747.001 357.95 753.049 358.6C761.085 359.488 769.278 358.648 777.277 357.771C785.732 356.844 794.201 355.702 802.725 355.805C810.505 355.928 818.216 357.299 825.562 359.866C839.668 364.704 852.375 372.731 865.85 378.982C878.893 385.033 892.55 388.784 906.996 388.877C920.92 388.947 934.693 385.993 947.364 380.22C959.841 374.536 971.567 366.051 979.336 354.612C986.62 343.888 990.444 329.819 983.889 317.813C978.751 308.403 968.953 303.641 959.073 300.71C948.121 297.46 936.674 295.975 925.953 291.928C920.35 289.915 915.196 286.823 910.781 282.828C906.046 278.232 902.144 272.848 899.25 266.917C893.113 254.944 889.976 241.794 884.807 229.427C880.019 217.971 873.467 206.424 862.914 199.364C857.242 195.612 850.651 193.485 843.856 193.213C836.339 192.873 828.868 194.599 821.723 196.773C814.162 199.075 806.783 201.949 799.165 204.067C791.141 206.302 782.822 207.295 774.497 207.013C757.375 206.455 740.835 201.369 724.625 196.241C696.23 187.258 664.649 177.64 636.101 191.488C624.977 196.884 615.555 205.936 611.582 217.823C608.067 228.342 608.553 240.61 613.972 250.41C616.541 255.071 620.286 258.977 624.835 261.74C626.49 262.743 628 260.15 626.349 259.149L626.349 259.149Z" fill="#2F2E41"/>
<path d="M709.088 526.594H694.328C692.605 526.592 690.953 525.907 689.734 524.688C688.516 523.47 687.83 521.818 687.828 520.094V434.839C687.83 433.116 688.516 431.464 689.734 430.245C690.953 429.027 692.605 428.341 694.328 428.339H709.088C710.812 428.341 712.464 429.027 713.682 430.245C714.901 431.464 715.586 433.116 715.588 434.839V520.094C715.586 521.818 714.901 523.47 713.682 524.688C712.464 525.907 710.812 526.592 709.088 526.594V526.594Z" fill="#95CCB6"/>
<path d="M652.116 245.907C652.445 248.258 653.424 250.469 654.943 252.293C656.461 254.117 658.459 255.479 660.711 256.228C662.963 256.977 665.38 257.081 667.688 256.53C669.996 255.979 672.104 254.794 673.775 253.108L671.268 252.446C672.666 256.024 675.011 259.155 678.05 261.504C681.09 263.853 684.71 265.333 688.525 265.784C692.34 266.236 696.206 265.642 699.71 264.067C703.214 262.493 706.224 259.996 708.419 256.843C709.549 255.274 706.948 253.774 705.829 255.329C703.937 257.978 701.369 260.071 698.394 261.391C695.418 262.711 692.143 263.209 688.909 262.833C685.675 262.457 682.602 261.221 680.008 259.254C677.414 257.287 675.395 254.661 674.161 251.649C674.085 251.4 673.948 251.174 673.761 250.994C673.574 250.813 673.343 250.684 673.092 250.617C672.841 250.551 672.576 250.55 672.325 250.615C672.073 250.679 671.842 250.808 671.654 250.987C670.352 252.302 668.704 253.22 666.9 253.634C665.097 254.048 663.213 253.941 661.468 253.325C659.724 252.709 658.19 251.609 657.046 250.155C655.903 248.7 655.196 246.951 655.009 245.11C654.741 243.206 651.85 244.016 652.116 245.908V245.907Z" fill="#2F2E41"/>
<path d="M557.552 458.893L557.239 459.105L551.432 450.538C550.99 449.887 550.425 449.329 549.768 448.896C549.111 448.464 548.375 448.165 547.603 448.017C546.83 447.868 546.036 447.874 545.266 448.032C544.495 448.191 543.763 448.5 543.112 448.941V448.941L524.962 461.246C524.311 461.687 523.754 462.252 523.321 462.909C522.888 463.566 522.589 464.302 522.441 465.074C522.293 465.847 522.298 466.641 522.457 467.412C522.615 468.182 522.924 468.914 523.366 469.565L555.227 516.563C555.668 517.214 556.234 517.772 556.891 518.204C557.548 518.637 558.283 518.936 559.056 519.084C559.828 519.232 560.623 519.227 561.393 519.069C562.163 518.91 562.895 518.601 563.546 518.16V518.16L581.696 505.855C582.347 505.414 582.905 504.849 583.338 504.192C583.77 503.535 584.069 502.799 584.218 502.026C584.366 501.254 584.361 500.46 584.202 499.689C584.043 498.919 583.734 498.187 583.293 497.536V497.536L561.373 465.203L561.686 464.991L557.552 458.893Z" fill="#3F3D56"/>
<path d="M544.485 451.166L542.192 452.72C542.473 452.907 542.703 453.16 542.863 453.458C543.023 453.755 543.107 454.087 543.109 454.424C543.11 454.761 543.029 455.094 542.871 455.392C542.714 455.691 542.485 455.946 542.206 456.135L532.142 462.958C531.863 463.147 531.541 463.265 531.206 463.3C530.87 463.336 530.531 463.289 530.218 463.163C529.906 463.037 529.629 462.835 529.412 462.577C529.195 462.318 529.045 462.011 528.975 461.681L526.833 463.133C526.362 463.452 525.959 463.861 525.647 464.335C525.334 464.81 525.118 465.342 525.011 465.901C524.903 466.459 524.907 467.033 525.022 467.59C525.137 468.147 525.36 468.676 525.679 469.146V469.146L556.472 514.569C556.791 515.04 557.2 515.443 557.675 515.756C558.15 516.068 558.681 516.284 559.24 516.392C559.798 516.499 560.372 516.495 560.929 516.38C561.486 516.266 562.015 516.042 562.486 515.723L580.137 503.757C581.088 503.112 581.743 502.117 581.96 500.989C582.176 499.861 581.936 498.694 581.292 497.743V497.743L550.498 452.32C550.179 451.85 549.77 451.447 549.296 451.134C548.821 450.821 548.289 450.605 547.73 450.498C547.172 450.391 546.598 450.394 546.041 450.509C545.484 450.624 544.955 450.847 544.485 451.166V451.166L544.485 451.166Z" fill="white"/>
</g>
<defs>
<clipPath id="clip0_27:25">
<rect width="924.256" height="530.591" fill="white" transform="translate(63 98)"/>
</clipPath>
</defs>
</svg>
