<svg width="279" height="85" viewBox="0 0 279 85" fill="none" xmlns="http://www.w3.org/2000/svg">
<g clip-path="url(#clip0_5:24)">
<path d="M82.8807 26.9024C82.6027 25.2619 81.8586 23.3287 80.7849 21.4594C79.7716 19.695 78.2891 17.7414 76.7082 16.5707V10.1854C76.7082 7.06508 74.1697 4.52661 71.0495 4.52661H19.808C16.6877 4.52661 14.1492 7.06524 14.1492 10.1854V10.2205H12.7334C9.61309 10.2205 7.07462 12.759 7.07462 15.8791V15.9143H5.65875C2.53863 15.9145 0 18.4529 0 21.5732V72.8147C0 75.935 2.53863 78.4734 5.65875 78.4734H56.9004C60.0207 78.4734 62.5591 75.9348 62.5591 72.8147V72.7797H63.975C67.0953 72.7797 69.6338 70.241 69.6338 67.1209V67.0857H71.0496C74.1699 67.0857 76.7084 64.5473 76.7084 61.4272V34.0182L81.6013 31.2082C81.6015 31.2082 81.6016 31.208 81.6018 31.208C82.2853 30.8154 83.3602 29.734 82.8807 26.9024ZM59.7798 72.8147H59.7796C59.7796 74.4024 58.4879 75.6941 56.9002 75.6941H5.65875C4.07105 75.6941 2.77937 74.4026 2.77937 72.8147V21.5732C2.77937 19.9855 4.07105 18.6938 5.65875 18.6938H7.07462V67.1208C7.07462 70.241 9.61325 72.7795 12.7334 72.7795H59.7796V72.8147H59.7798ZM66.8544 67.1209H66.8542C66.8542 68.7086 65.5625 70.0003 63.9748 70.0003H61.1692H12.7335C11.1458 70.0003 9.85414 68.7086 9.85414 67.1209V17.3042V15.8793C9.85414 14.2919 11.1458 13.0001 12.7335 13.0001H14.1494V61.427C14.1494 64.5473 16.688 67.0856 19.8081 67.0856H66.8544V67.1209ZM73.929 61.4268C73.929 63.0142 72.6373 64.3061 71.0496 64.3061H68.244H19.808C18.6173 64.3061 17.5931 63.5795 17.1554 62.5465C17.1189 62.4604 17.0865 62.3721 17.0584 62.2821C17.0024 62.102 16.9634 61.9141 16.9437 61.7209C16.9338 61.6241 16.9289 61.5262 16.9289 61.427V11.6103V10.1854C16.9289 8.59766 18.2206 7.30598 19.8083 7.30598H71.0499C72.6376 7.30598 73.9293 8.59766 73.9293 10.1854V15.5142C73.8899 15.5158 73.852 15.5223 73.8129 15.5257C72.7711 15.6141 71.7734 16.4178 70.8938 16.923C69.8398 17.5283 68.7858 18.1337 67.7317 18.7391C65.6237 19.9499 63.5154 21.1603 61.4074 22.3711C61.1019 22.5464 60.7967 22.7219 60.4913 22.8972C60.4089 22.9445 60.3267 22.9917 60.2444 23.0389C60.2387 23.0423 60.233 23.0453 60.2274 23.0487C59.0396 22.2183 57.9309 21.7973 56.9236 21.7973C56.3502 21.7973 55.8225 21.9333 55.355 22.2019C52.9313 23.5938 53.2557 27.6771 54.9366 31.8694L52.7681 33.1148V29.8046C52.7681 29.0369 52.1459 28.4149 51.3783 28.4149C50.6107 28.4149 49.9885 29.0369 49.9885 29.8046V45.1449C49.9885 45.9126 50.6107 46.5347 51.3783 46.5347C52.1459 46.5347 52.7681 45.9126 52.7681 45.1449V41.9852L58.7716 38.5373C60.9107 41.2823 63.5038 43.4556 65.759 43.4556C66.3326 43.4556 66.8604 43.3194 67.3281 43.0506C68.9691 42.1079 69.1724 40.0203 69.0494 38.417L73.929 35.6146V61.4268ZM56.7391 24.6118C56.7801 24.5883 56.8419 24.5765 56.9232 24.5765C57.0614 24.5765 57.4673 24.6184 58.1584 25.0203C58.1558 25.0279 58.1543 25.0357 58.1517 25.0435C57.5547 26.7975 58.1527 28.8787 58.8005 30.5333C59.5703 32.5007 60.6433 34.3491 61.9695 35.9933C63.0296 37.3077 64.433 38.7605 66.1327 39.1734C66.1687 39.1822 66.2043 39.19 66.2403 39.1973C66.2619 39.2016 66.2833 39.2075 66.3048 39.2115C66.3018 40.1114 66.091 40.5559 65.9438 40.6404C65.9026 40.664 65.8404 40.6759 65.7589 40.6759C64.7888 40.6759 62.5627 39.1679 60.3141 35.9684C60.304 35.9528 60.2954 35.9364 60.2846 35.9214C59.9596 35.4577 59.6464 34.9766 59.3489 34.4859C59.3398 34.4708 59.3307 34.4564 59.3218 34.4415C59.2299 34.2894 59.1399 34.136 59.0513 33.9824C59.0453 33.972 59.0393 33.9621 59.0333 33.9517C59.0232 33.9344 59.0141 33.9175 59.0044 33.9C58.6272 33.2396 58.2765 32.5597 57.9627 31.8779C57.956 31.8634 57.9476 31.8498 57.9405 31.8356C56.0657 27.7532 56.1639 24.942 56.7391 24.6118ZM57.1711 36.2504L52.7679 38.7792V36.3193L56.1088 34.4008C56.1171 34.4167 56.1265 34.4322 56.1349 34.4484C56.2925 34.7466 56.4548 35.0429 56.6229 35.3357C56.785 35.6181 56.9547 35.9004 57.1298 36.1817C57.144 36.2044 57.1568 36.2279 57.1711 36.2504ZM74.6266 32.0085C74.6266 32.0085 66.869 36.4638 66.868 36.4644L66.8332 36.4844C66.82 36.4829 66.8054 36.48 66.7905 36.4769C66.7857 36.4759 66.7816 36.4756 66.7766 36.4745C66.7651 36.4719 66.7523 36.468 66.7399 36.4646C66.7307 36.462 66.7221 36.4602 66.7125 36.4571C66.6962 36.4521 66.6785 36.4456 66.6608 36.4391C66.654 36.4367 66.6479 36.4349 66.6409 36.4323C66.6271 36.4271 66.6122 36.4205 66.5978 36.4145C66.5859 36.4095 66.5746 36.4053 66.5624 36.3999C66.559 36.3984 66.5551 36.3963 66.5519 36.3949C66.417 36.3341 66.2556 36.2428 66.0721 36.118C66.0685 36.1156 66.0648 36.1128 66.0613 36.1104C65.838 35.9577 65.5825 35.7568 65.304 35.5036C65.3002 35.5002 65.2965 35.4966 65.2928 35.4932C63.9303 34.2484 62.8955 32.6852 62.0676 31.0464C61.4046 29.7341 60.7978 28.2666 60.7023 26.7805C60.69 26.5912 60.686 26.3997 60.7088 26.2108C60.7229 26.0933 60.746 26.0022 60.7753 25.9387L71.4551 19.8053C71.4564 19.8143 71.458 19.8237 71.4593 19.833C71.7368 21.9012 72.5264 23.8826 73.5887 25.6692C74.5988 27.368 75.8912 29.0805 77.4529 30.3109C77.4709 30.325 77.4884 30.3404 77.5064 30.3542C77.5061 30.3548 74.6285 32.0076 74.6266 32.0085ZM80.1786 28.7313C80.1419 28.7205 80.1008 28.7051 80.0572 28.6871C80.0503 28.6841 80.0434 28.6817 80.0365 28.6785C79.2123 28.3212 78.5081 27.5149 77.9099 26.8562C77.2407 26.1193 76.6453 25.3158 76.1327 24.4625C75.5503 23.4928 75.0753 22.4587 74.7212 21.3845C74.428 20.4941 74.0439 19.4081 74.168 18.4651C74.1688 18.4599 74.1694 18.4552 74.1702 18.4503C74.1769 18.4028 74.185 18.3597 74.1945 18.3218C74.2899 18.3506 74.4314 18.4071 74.6277 18.5197C75.4715 19.0179 76.9506 20.3645 78.3744 22.8438C80.1025 25.8521 80.3557 28.062 80.1786 28.7313Z" fill="#0A0E0C"/>
</g>
<path d="M131.492 17.864C131.492 19.328 131.156 20.672 130.484 21.896C129.812 23.096 128.78 24.068 127.388 24.812C125.996 25.556 124.268 25.928 122.204 25.928H118.388V35H112.232V9.728H122.204C124.22 9.728 125.924 10.076 127.316 10.772C128.708 11.468 129.752 12.428 130.448 13.652C131.144 14.876 131.492 16.28 131.492 17.864ZM121.736 21.032C122.912 21.032 123.788 20.756 124.364 20.204C124.94 19.652 125.228 18.872 125.228 17.864C125.228 16.856 124.94 16.076 124.364 15.524C123.788 14.972 122.912 14.696 121.736 14.696H118.388V21.032H121.736ZM143.841 35.288C141.873 35.288 140.097 34.868 138.513 34.028C136.953 33.188 135.717 31.988 134.805 30.428C133.917 28.868 133.473 27.044 133.473 24.956C133.473 22.892 133.929 21.08 134.841 19.52C135.753 17.936 137.001 16.724 138.585 15.884C140.169 15.044 141.945 14.624 143.913 14.624C145.881 14.624 147.657 15.044 149.241 15.884C150.825 16.724 152.073 17.936 152.985 19.52C153.897 21.08 154.353 22.892 154.353 24.956C154.353 27.02 153.885 28.844 152.949 30.428C152.037 31.988 150.777 33.188 149.169 34.028C147.585 34.868 145.809 35.288 143.841 35.288ZM143.841 29.96C145.017 29.96 146.013 29.528 146.829 28.664C147.669 27.8 148.089 26.564 148.089 24.956C148.089 23.348 147.681 22.112 146.865 21.248C146.073 20.384 145.089 19.952 143.913 19.952C142.713 19.952 141.717 20.384 140.925 21.248C140.133 22.088 139.737 23.324 139.737 24.956C139.737 26.564 140.121 27.8 140.889 28.664C141.681 29.528 142.665 29.96 143.841 29.96ZM165.791 35.288C164.039 35.288 162.479 34.988 161.111 34.388C159.743 33.788 158.663 32.972 157.871 31.94C157.079 30.884 156.635 29.708 156.539 28.412H162.623C162.695 29.108 163.019 29.672 163.595 30.104C164.171 30.536 164.879 30.752 165.719 30.752C166.487 30.752 167.075 30.608 167.483 30.32C167.915 30.008 168.131 29.612 168.131 29.132C168.131 28.556 167.831 28.136 167.231 27.872C166.631 27.584 165.659 27.272 164.315 26.936C162.875 26.6 161.675 26.252 160.715 25.892C159.755 25.508 158.927 24.92 158.231 24.128C157.535 23.312 157.187 22.22 157.187 20.852C157.187 19.7 157.499 18.656 158.123 17.72C158.771 16.76 159.707 16.004 160.931 15.452C162.179 14.9 163.655 14.624 165.359 14.624C167.879 14.624 169.859 15.248 171.299 16.496C172.763 17.744 173.603 19.4 173.819 21.464H168.131C168.035 20.768 167.723 20.216 167.195 19.808C166.691 19.4 166.019 19.196 165.179 19.196C164.459 19.196 163.907 19.34 163.523 19.628C163.139 19.892 162.947 20.264 162.947 20.744C162.947 21.32 163.247 21.752 163.847 22.04C164.471 22.328 165.431 22.616 166.727 22.904C168.215 23.288 169.427 23.672 170.363 24.056C171.299 24.416 172.115 25.016 172.811 25.856C173.531 26.672 173.903 27.776 173.927 29.168C173.927 30.344 173.591 31.4 172.919 32.336C172.271 33.248 171.323 33.968 170.075 34.496C168.851 35.024 167.423 35.288 165.791 35.288ZM188.889 29.78V35H185.757C183.525 35 181.785 34.46 180.537 33.38C179.289 32.276 178.665 30.488 178.665 28.016V20.024H176.217V14.912H178.665V10.016H184.821V14.912H188.853V20.024H184.821V28.088C184.821 28.688 184.965 29.12 185.253 29.384C185.541 29.648 186.021 29.78 186.693 29.78H188.889ZM200.49 35.288C198.738 35.288 197.178 34.988 195.81 34.388C194.442 33.788 193.362 32.972 192.57 31.94C191.778 30.884 191.334 29.708 191.238 28.412H197.322C197.394 29.108 197.718 29.672 198.294 30.104C198.87 30.536 199.578 30.752 200.418 30.752C201.186 30.752 201.774 30.608 202.182 30.32C202.614 30.008 202.83 29.612 202.83 29.132C202.83 28.556 202.53 28.136 201.93 27.872C201.33 27.584 200.358 27.272 199.014 26.936C197.574 26.6 196.374 26.252 195.414 25.892C194.454 25.508 193.626 24.92 192.93 24.128C192.234 23.312 191.886 22.22 191.886 20.852C191.886 19.7 192.198 18.656 192.822 17.72C193.47 16.76 194.406 16.004 195.63 15.452C196.878 14.9 198.354 14.624 200.058 14.624C202.578 14.624 204.558 15.248 205.998 16.496C207.462 17.744 208.302 19.4 208.518 21.464H202.83C202.734 20.768 202.422 20.216 201.894 19.808C201.39 19.4 200.718 19.196 199.878 19.196C199.158 19.196 198.606 19.34 198.222 19.628C197.838 19.892 197.646 20.264 197.646 20.744C197.646 21.32 197.946 21.752 198.546 22.04C199.17 22.328 200.13 22.616 201.426 22.904C202.914 23.288 204.126 23.672 205.062 24.056C205.998 24.416 206.814 25.016 207.51 25.856C208.23 26.672 208.602 27.776 208.626 29.168C208.626 30.344 208.29 31.4 207.618 32.336C206.97 33.248 206.022 33.968 204.774 34.496C203.55 35.024 202.122 35.288 200.49 35.288ZM140.852 49.728V75H134.696V59.844L129.044 75H124.076L118.388 59.808V75H112.232V49.728H119.504L126.596 67.224L133.616 49.728H140.852ZM144.055 64.92C144.055 62.856 144.439 61.044 145.207 59.484C145.999 57.924 147.067 56.724 148.411 55.884C149.755 55.044 151.255 54.624 152.911 54.624C154.327 54.624 155.563 54.912 156.619 55.488C157.699 56.064 158.527 56.82 159.103 57.756V54.912H165.259V75H159.103V72.156C158.503 73.092 157.663 73.848 156.583 74.424C155.527 75 154.291 75.288 152.875 75.288C151.243 75.288 149.755 74.868 148.411 74.028C147.067 73.164 145.999 71.952 145.207 70.392C144.439 68.808 144.055 66.984 144.055 64.92ZM159.103 64.956C159.103 63.42 158.671 62.208 157.807 61.32C156.967 60.432 155.935 59.988 154.711 59.988C153.487 59.988 152.443 60.432 151.579 61.32C150.739 62.184 150.319 63.384 150.319 64.92C150.319 66.456 150.739 67.68 151.579 68.592C152.443 69.48 153.487 69.924 154.711 69.924C155.935 69.924 156.967 69.48 157.807 68.592C158.671 67.704 159.103 66.492 159.103 64.956ZM181.952 54.696C184.304 54.696 186.176 55.464 187.568 57C188.984 58.512 189.692 60.6 189.692 63.264V75H183.572V64.092C183.572 62.748 183.224 61.704 182.528 60.96C181.832 60.216 180.896 59.844 179.72 59.844C178.544 59.844 177.608 60.216 176.912 60.96C176.216 61.704 175.868 62.748 175.868 64.092V75H169.712V54.912H175.868V57.576C176.492 56.688 177.332 55.992 178.388 55.488C179.444 54.96 180.632 54.696 181.952 54.696ZM192.746 64.92C192.746 62.856 193.13 61.044 193.898 59.484C194.69 57.924 195.758 56.724 197.102 55.884C198.446 55.044 199.946 54.624 201.602 54.624C203.018 54.624 204.254 54.912 205.31 55.488C206.39 56.064 207.218 56.82 207.794 57.756V54.912H213.95V75H207.794V72.156C207.194 73.092 206.354 73.848 205.274 74.424C204.218 75 202.982 75.288 201.566 75.288C199.934 75.288 198.446 74.868 197.102 74.028C195.758 73.164 194.69 71.952 193.898 70.392C193.13 68.808 192.746 66.984 192.746 64.92ZM207.794 64.956C207.794 63.42 207.362 62.208 206.498 61.32C205.658 60.432 204.626 59.988 203.402 59.988C202.178 59.988 201.134 60.432 200.27 61.32C199.43 62.184 199.01 63.384 199.01 64.92C199.01 66.456 199.43 67.68 200.27 68.592C201.134 69.48 202.178 69.924 203.402 69.924C204.626 69.924 205.658 69.48 206.498 68.592C207.362 67.704 207.794 66.492 207.794 64.956ZM226.036 54.624C227.452 54.624 228.688 54.912 229.744 55.488C230.824 56.064 231.652 56.82 232.228 57.756V54.912H238.384V74.964C238.384 76.812 238.012 78.48 237.268 79.968C236.548 81.48 235.432 82.68 233.92 83.568C232.432 84.456 230.572 84.9 228.34 84.9C225.364 84.9 222.952 84.192 221.104 82.776C219.256 81.384 218.2 79.488 217.936 77.088H224.02C224.212 77.856 224.668 78.456 225.388 78.888C226.108 79.344 226.996 79.572 228.052 79.572C229.324 79.572 230.332 79.2 231.076 78.456C231.844 77.736 232.228 76.572 232.228 74.964V72.12C231.628 73.056 230.8 73.824 229.744 74.424C228.688 75 227.452 75.288 226.036 75.288C224.38 75.288 222.88 74.868 221.536 74.028C220.192 73.164 219.124 71.952 218.332 70.392C217.564 68.808 217.18 66.984 217.18 64.92C217.18 62.856 217.564 61.044 218.332 59.484C219.124 57.924 220.192 56.724 221.536 55.884C222.88 55.044 224.38 54.624 226.036 54.624ZM232.228 64.956C232.228 63.42 231.796 62.208 230.932 61.32C230.092 60.432 229.06 59.988 227.836 59.988C226.612 59.988 225.568 60.432 224.704 61.32C223.864 62.184 223.444 63.384 223.444 64.92C223.444 66.456 223.864 67.68 224.704 68.592C225.568 69.48 226.612 69.924 227.836 69.924C229.06 69.924 230.092 69.48 230.932 68.592C231.796 67.704 232.228 66.492 232.228 64.956ZM261.773 64.632C261.773 65.208 261.737 65.808 261.665 66.432H247.733C247.829 67.68 248.225 68.64 248.921 69.312C249.641 69.96 250.517 70.284 251.549 70.284C253.085 70.284 254.153 69.636 254.753 68.34H261.305C260.969 69.66 260.357 70.848 259.469 71.904C258.605 72.96 257.513 73.788 256.193 74.388C254.873 74.988 253.397 75.288 251.765 75.288C249.797 75.288 248.045 74.868 246.509 74.028C244.973 73.188 243.773 71.988 242.909 70.428C242.045 68.868 241.613 67.044 241.613 64.956C241.613 62.868 242.033 61.044 242.873 59.484C243.737 57.924 244.937 56.724 246.473 55.884C248.009 55.044 249.773 54.624 251.765 54.624C253.709 54.624 255.437 55.032 256.949 55.848C258.461 56.664 259.637 57.828 260.477 59.34C261.341 60.852 261.773 62.616 261.773 64.632ZM255.473 63.012C255.473 61.956 255.113 61.116 254.393 60.492C253.673 59.868 252.773 59.556 251.693 59.556C250.661 59.556 249.785 59.856 249.065 60.456C248.369 61.056 247.937 61.908 247.769 63.012H255.473ZM271.177 58.26C271.897 57.156 272.797 56.292 273.877 55.668C274.957 55.02 276.157 54.696 277.477 54.696V61.212H275.785C274.249 61.212 273.097 61.548 272.329 62.22C271.561 62.868 271.177 64.02 271.177 65.676V75H265.021V54.912H271.177V58.26Z" fill="black"/>
<path d="M89 42.5L209 42.5" stroke="#95CCB6" stroke-width="4" stroke-linecap="round"/>
<defs>
<clipPath id="clip0_5:24">
<rect width="83" height="83" fill="white"/>
</clipPath>
</defs>
</svg>
