<svg width="29" height="25" viewBox="0 0 29 25" fill="none" xmlns="http://www.w3.org/2000/svg">
<path d="M19.9375 9.375C19.9375 10.6182 19.3646 11.8105 18.3449 12.6896C17.3252 13.5686 15.9421 14.0625 14.5 14.0625C13.0579 14.0625 11.6748 13.5686 10.6551 12.6896C9.63538 11.8105 9.0625 10.6182 9.0625 9.375C9.0625 8.1318 9.63538 6.93951 10.6551 6.06044C11.6748 5.18136 13.0579 4.6875 14.5 4.6875C15.9421 4.6875 17.3252 5.18136 18.3449 6.06044C19.3646 6.93951 19.9375 8.1318 19.9375 9.375Z" fill="#0A0E0C"/>
<path fill-rule="evenodd" clip-rule="evenodd" d="M0 12.5C0 9.18479 1.52767 6.00537 4.24695 3.66117C6.96623 1.31696 10.6544 0 14.5 0C18.3456 0 22.0338 1.31696 24.753 3.66117C27.4723 6.00537 29 9.18479 29 12.5C29 15.8152 27.4723 18.9946 24.753 21.3388C22.0338 23.683 18.3456 25 14.5 25C10.6544 25 6.96623 23.683 4.24695 21.3388C1.52767 18.9946 0 15.8152 0 12.5ZM14.5 1.5625C12.1107 1.56261 9.77004 2.14432 7.74735 3.24067C5.72467 4.33702 4.1022 5.90345 3.06668 7.75968C2.03117 9.6159 1.6247 11.6865 1.89406 13.7331C2.16342 15.7796 3.09766 17.7191 4.58925 19.3281C5.87612 17.5406 8.70906 15.625 14.5 15.625C20.2909 15.625 23.1221 17.5391 24.4108 19.3281C25.9023 17.7191 26.8366 15.7796 27.1059 13.7331C27.3753 11.6865 26.9688 9.6159 25.9333 7.75968C24.8978 5.90345 23.2753 4.33702 21.2526 3.24067C19.23 2.14432 16.8893 1.56261 14.5 1.5625Z" fill="#0A0E0C"/>
</svg>
