<svg width="1134" height="785" viewBox="0 0 1134 785" fill="none" xmlns="http://www.w3.org/2000/svg">
<path d="M273.33 715.035C105.265 727.996 -24.2408 600.543 3.84214 453.107C3.84214 358.057 230.342 297.247 373.781 332.675C517.22 368.102 306.274 22.1423 606.545 0C732.378 6.12064 949.049 38.8841 809.066 120.973C669.084 203.061 926.438 266.788 1072.61 288.39C1261.63 381.28 970.003 692.136 792.865 600.543C615.726 508.949 751.28 784.162 606.545 784.162C550.739 753.919 441.396 702.073 273.33 715.035Z" fill="#AAE9CF"/>
<g clip-path="url(#clip0_27:27)">
<path d="M873.704 634.784C859.376 650.116 842.958 663.354 824.934 674.109C824.521 674.363 824.101 674.601 823.679 674.848L794.5 649.037C794.807 648.752 795.146 648.433 795.512 648.082C817.253 627.449 925.185 483.19 932.377 448.06C931.881 450.987 938.867 565.758 873.704 634.784Z" fill="#F0F0F0"/>
<path d="M830.565 679.089C830.013 679.22 829.451 679.344 828.888 679.456L806.998 660.092C807.426 659.943 807.926 659.765 808.498 659.569C817.89 656.245 845.863 646.211 873.702 634.782C903.615 622.497 933.384 608.616 939.787 599.724C938.413 601.79 896.108 664.441 830.565 679.089Z" fill="#F0F0F0"/>
<path d="M873.3 252.973H870.182V167.622C870.182 161.135 868.904 154.711 866.42 148.718C863.936 142.724 860.295 137.278 855.705 132.691C851.116 128.104 845.667 124.465 839.67 121.983C833.673 119.5 827.246 118.223 820.755 118.223H639.824C633.333 118.223 626.906 119.5 620.909 121.983C614.913 124.465 609.464 128.104 604.874 132.691C600.284 137.278 596.644 142.724 594.16 148.717C591.676 154.711 590.397 161.134 590.397 167.622V635.868C590.397 642.355 591.676 648.779 594.16 654.772C596.644 660.765 600.284 666.211 604.874 670.798C609.464 675.385 614.913 679.024 620.909 681.507C626.906 683.989 633.333 685.267 639.824 685.267H820.755C827.246 685.267 833.673 683.989 839.67 681.507C845.667 679.024 851.115 675.386 855.705 670.798C860.295 666.211 863.936 660.765 866.42 654.772C868.904 648.779 870.182 642.355 870.182 635.868V313.728H873.3V252.973Z" fill="#3F3D56"/>
<path d="M859.661 167.961V635.525C859.661 640.37 858.706 645.167 856.85 649.643C854.995 654.119 852.275 658.185 848.847 661.611C845.419 665.036 841.349 667.752 836.87 669.605C832.391 671.458 827.591 672.41 822.744 672.409H640.942C636.095 672.409 631.296 671.455 626.819 669.602C622.341 667.748 618.273 665.032 614.846 661.607C611.419 658.182 608.701 654.116 606.846 649.641C604.992 645.165 604.037 640.369 604.038 635.525V167.961C604.037 163.117 604.992 158.321 606.846 153.846C608.701 149.371 611.419 145.305 614.846 141.88C618.273 138.455 622.341 135.738 626.819 133.885C631.296 132.031 636.095 131.078 640.942 131.078H663.004C661.921 133.739 661.509 136.626 661.804 139.484C662.099 142.342 663.093 145.083 664.697 147.468C666.301 149.852 668.466 151.806 671.003 153.157C673.54 154.509 676.37 155.217 679.245 155.218H782.895C785.771 155.221 788.604 154.516 791.144 153.166C793.683 151.816 795.851 149.862 797.456 147.476C799.061 145.09 800.053 142.347 800.347 139.487C800.64 136.627 800.224 133.739 799.136 131.078H822.744C827.591 131.076 832.391 132.029 836.87 133.882C841.349 135.734 845.419 138.451 848.847 141.876C852.275 145.301 854.995 149.368 856.85 153.843C858.706 158.319 859.661 163.116 859.661 167.961V167.961Z" fill="white"/>
<path d="M803.109 410.933H643.31C640.511 410.929 637.828 409.817 635.849 407.839C633.87 405.861 632.757 403.179 632.753 400.381V395.13C632.757 392.332 633.87 389.65 635.849 387.672C637.828 385.694 640.511 384.582 643.31 384.578H803.109C805.908 384.582 808.591 385.694 810.57 387.672C812.549 389.65 813.663 392.332 813.666 395.13V400.381C813.663 403.179 812.549 405.861 810.57 407.839C808.591 409.817 805.908 410.929 803.109 410.933Z" fill="#307452"/>
<path d="M803.109 456.204H643.31C640.511 456.201 637.828 455.089 635.849 453.111C633.87 451.133 632.757 448.451 632.753 445.653V440.401C632.757 437.604 633.87 434.922 635.849 432.944C637.828 430.966 640.511 429.853 643.31 429.85H803.109C805.908 429.853 808.591 430.966 810.57 432.944C812.549 434.922 813.663 437.604 813.666 440.401V445.653C813.663 448.451 812.549 451.133 810.57 453.111C808.591 455.089 805.908 456.201 803.109 456.204V456.204Z" fill="#F0F0F0"/>
<path d="M811.102 400.807H651.304C648.365 400.804 645.548 399.636 643.469 397.559C641.391 395.482 640.222 392.666 640.219 389.729V384.477C640.222 381.54 641.391 378.724 643.469 376.647C645.548 374.57 648.365 373.402 651.304 373.398H811.102C814.041 373.402 816.859 374.57 818.937 376.647C821.015 378.724 822.184 381.54 822.187 384.477V389.729C822.184 392.666 821.015 395.482 818.937 397.559C816.859 399.636 814.041 400.804 811.102 400.807V400.807ZM651.304 375.509C648.925 375.511 646.644 376.457 644.962 378.138C643.279 379.82 642.333 382.099 642.33 384.477V389.729C642.333 392.107 643.279 394.386 644.962 396.068C646.644 397.749 648.925 398.695 651.304 398.697H811.102C813.481 398.695 815.762 397.749 817.445 396.068C819.127 394.386 820.073 392.107 820.076 389.729V384.477C820.073 382.099 819.127 379.82 817.445 378.138C815.762 376.457 813.481 375.511 811.102 375.509H651.304Z" fill="#3F3D56"/>
<path d="M811.102 446.079H651.304C648.365 446.076 645.548 444.908 643.469 442.831C641.391 440.754 640.222 437.938 640.219 435.001V429.749C640.222 426.812 641.391 423.996 643.469 421.919C645.548 419.842 648.365 418.674 651.304 418.67H811.102C814.041 418.674 816.859 419.842 818.937 421.919C821.015 423.996 822.184 426.812 822.187 429.749V435.001C822.184 437.938 821.015 440.754 818.937 442.831C816.859 444.908 814.041 446.076 811.102 446.079V446.079ZM651.304 420.78C648.925 420.783 646.644 421.729 644.962 423.41C643.279 425.091 642.333 427.371 642.33 429.749V435.001C642.333 437.378 643.279 439.658 644.962 441.339C646.644 443.021 648.925 443.966 651.304 443.969H811.102C813.481 443.966 815.762 443.021 817.445 441.339C819.127 439.658 820.073 437.378 820.076 435.001V429.749C820.073 427.371 819.127 425.091 817.445 423.41C815.762 421.729 813.481 420.783 811.102 420.78H651.304Z" fill="#3F3D56"/>
<path d="M859.661 167.961V269.663C843.492 273.914 826.562 274.402 810.175 271.089C793.788 267.775 778.379 260.749 765.135 250.55C751.891 240.351 741.165 227.252 733.781 212.26C726.397 197.268 722.553 180.783 722.543 164.073C722.543 161.09 722.663 158.139 722.903 155.218H782.895C785.771 155.221 788.604 154.516 791.144 153.166C793.683 151.816 795.851 149.862 797.456 147.476C799.061 145.09 800.053 142.347 800.347 139.487C800.64 136.627 800.224 133.739 799.136 131.078H822.744C827.591 131.076 832.391 132.029 836.87 133.882C841.349 135.734 845.419 138.451 848.847 141.876C852.275 145.301 854.995 149.368 856.85 153.843C858.706 158.319 859.661 163.116 859.661 167.961V167.961Z" fill="#F0F0F0"/>
<path d="M695.643 666.644C695.643 668.788 695.563 670.905 695.39 672.996H640.687C635.841 672.996 631.042 672.042 626.564 670.189C622.087 668.335 618.018 665.619 614.591 662.194C611.164 658.769 608.446 654.702 606.591 650.227C604.737 645.752 603.783 640.956 603.783 636.112V586.1C615.25 584.61 626.902 585.579 637.964 588.944C649.027 592.308 659.244 597.99 667.937 605.612C676.629 613.233 683.596 622.618 688.373 633.142C693.151 643.667 695.629 655.087 695.643 666.644H695.643Z" fill="#95CCB6"/>
<path d="M254.699 578.305C256.236 578.98 257.979 579.019 259.544 578.412C261.11 577.806 262.371 576.603 263.051 575.069L312.33 463.444C313.458 460.89 313.803 458.059 313.321 455.308C312.838 452.558 311.551 450.013 309.621 447.994C307.691 445.975 305.206 444.573 302.479 443.966C299.752 443.359 296.906 443.574 294.302 444.583H294.301C291.292 445.732 288.774 447.887 287.175 450.682C286.921 451.124 286.69 451.58 286.484 452.046L237.205 563.671C236.869 564.431 236.686 565.251 236.667 566.082C236.648 566.913 236.793 567.74 237.094 568.515C237.395 569.29 237.845 569.998 238.42 570.6C238.995 571.201 239.682 571.683 240.443 572.018L254.699 578.305Z" fill="#95CCB6"/>
<path d="M310.307 509.271L261.563 498.445L273.628 466.547C275.683 458.75 280.466 451.948 287.11 447.375C293.753 442.801 301.816 440.758 309.838 441.617L310.307 441.669L310.307 509.271Z" fill="#0A0E0C"/>
<path d="M408.762 579.901C407.328 579.899 405.926 579.481 404.724 578.699C403.523 577.917 402.574 576.804 401.993 575.494L352.713 463.87C351.146 460.318 351 456.301 352.306 452.646C353.612 448.99 356.27 445.974 359.733 444.217C363.197 442.46 367.202 442.097 370.925 443.202C374.648 444.307 377.806 446.796 379.749 450.157V450.156C380.022 450.631 380.27 451.12 380.491 451.621L429.77 563.245C430.562 565.037 430.608 567.07 429.899 568.896C429.191 570.723 427.786 572.193 425.992 572.984L411.253 579.483L411.246 579.466C410.449 579.754 409.609 579.901 408.762 579.901V579.901Z" fill="#95CCB6"/>
<path d="M340.595 541.57C338.916 541.572 337.306 542.239 336.119 543.426C334.931 544.613 334.263 546.222 334.261 547.9V677.694C334.263 679.372 334.931 680.982 336.119 682.168C337.306 683.355 338.916 684.023 340.595 684.025H356.177C357.856 684.023 359.467 683.355 360.654 682.168C361.842 680.982 362.509 679.372 362.511 677.694V547.9C362.509 546.222 361.842 544.613 360.654 543.426C359.467 542.239 357.856 541.572 356.177 541.57H340.595Z" fill="#95CCB6"/>
<path d="M309.777 541.57C308.098 541.572 306.488 542.239 305.3 543.426C304.113 544.613 303.445 546.222 303.443 547.9V677.694C303.445 679.372 304.113 680.982 305.3 682.168C306.488 683.355 308.098 684.023 309.777 684.025H325.359C327.038 684.023 328.648 683.355 329.836 682.168C331.023 680.982 331.691 679.372 331.693 677.694V547.9C331.691 546.222 331.023 544.613 329.836 543.426C328.648 542.239 327.038 541.572 325.359 541.57H309.777Z" fill="#95CCB6"/>
<path d="M332.512 405.589C362.247 405.589 386.352 381.497 386.352 351.778C386.352 322.059 362.247 297.967 332.512 297.967C302.776 297.967 278.671 322.059 278.671 351.778C278.671 381.497 302.776 405.589 332.512 405.589Z" fill="#95CCB6"/>
<path d="M350.429 374.367C353.919 374.27 358.262 374.149 361.609 371.706C362.605 370.948 363.424 369.983 364.007 368.876C364.591 367.769 364.925 366.548 364.987 365.298C365.048 364.41 364.902 363.52 364.561 362.698C364.22 361.875 363.694 361.143 363.023 360.558C361.275 359.082 358.723 358.735 355.973 359.543L358.822 338.731L356.731 338.444L353.381 362.912L355.127 362.111C357.153 361.183 359.933 360.71 361.66 362.169C362.084 362.551 362.415 363.025 362.626 363.555C362.837 364.084 362.923 364.656 362.877 365.224C362.826 366.154 362.575 367.062 362.141 367.887C361.707 368.711 361.101 369.432 360.363 370.002C357.759 371.903 354.297 372.148 350.37 372.258L350.429 374.367Z" fill="#2F2E41"/>
<path d="M380.539 340.526H369.167V342.636H380.539V340.526Z" fill="#2F2E41"/>
<path d="M344.645 340.526H333.273V342.636H344.645V340.526Z" fill="#2F2E41"/>
<path d="M385.86 580.557L366.482 439.172C366.274 437.656 365.523 436.266 364.37 435.26C363.216 434.254 361.737 433.7 360.206 433.7H345.578C345.639 433.352 345.671 432.999 345.673 432.645V427.37C345.673 425.691 345.006 424.081 343.818 422.893C342.63 421.706 341.019 421.039 339.339 421.039H326.671C324.991 421.039 323.379 421.706 322.192 422.893C321.004 424.081 320.336 425.691 320.336 427.37V432.645C320.339 432.999 320.37 433.352 320.431 433.7H305.804C304.273 433.7 302.794 434.255 301.64 435.26C300.486 436.266 299.736 437.656 299.528 439.172L280.149 580.557C280.027 581.452 280.097 582.364 280.356 583.23C280.616 584.096 281.057 584.896 281.652 585.577C282.246 586.259 282.98 586.805 283.803 587.179C284.627 587.553 285.52 587.746 286.425 587.746H379.585C380.489 587.746 381.383 587.553 382.206 587.179C383.03 586.805 383.763 586.259 384.358 585.577C384.952 584.896 385.394 584.096 385.653 583.23C385.912 582.364 385.983 581.452 385.86 580.557V580.557Z" fill="#0A0E0C"/>
<path d="M355.702 509.271V441.669L356.172 441.617C364.203 440.759 372.275 442.808 378.923 447.393C385.57 451.978 390.352 458.793 392.399 466.602L404.446 498.445L355.702 509.271Z" fill="#0A0E0C"/>
<path d="M329.8 407.268L292.56 392.821C286.47 390.459 280.347 388.169 274.289 385.725C271.695 384.821 269.305 383.414 267.257 381.582C265.474 379.696 264.259 377.346 263.751 374.801C262.459 369.345 262.693 363.38 262.785 357.811C262.856 351.72 263.358 345.641 264.286 339.621C265.912 328.307 269.731 317.418 275.529 307.566C285.973 290.44 303.967 277.555 324.665 278.583C334.247 279.059 343.884 282.496 351.004 289.043C351.746 289.93 352.58 290.738 353.49 291.452C354.123 291.689 354.811 291.735 355.47 291.585C356.339 291.529 357.208 291.486 358.079 291.457C361.098 291.329 364.123 291.456 367.121 291.836C372.585 292.426 377.764 294.575 382.039 298.026C385.597 301.085 388.492 305.403 388.789 310.202C388.933 312.405 388.569 314.612 387.724 316.652C386.88 318.691 385.577 320.51 383.918 321.967C379.475 325.71 373.136 324.394 367.807 324.112L348.283 323.078L338.391 322.555C336.354 322.447 336.36 325.612 338.391 325.72L364.683 327.112C368.908 327.336 373.263 327.884 377.491 327.631C380.74 327.484 383.843 326.236 386.288 324.094C388.522 322.043 390.186 319.449 391.118 316.564C392.05 313.679 392.218 310.602 391.606 307.633C390.25 301.157 385.428 295.8 379.775 292.613C372.083 288.277 362.896 287.861 354.289 288.503L355.409 288.966C345.673 278.522 330.76 274.113 316.759 275.656C301.977 277.285 288.83 285.527 279.383 296.798C268.851 309.364 263.112 325.032 260.88 341.144C259.719 349.843 259.337 358.628 259.738 367.395C259.722 371.261 260.383 375.1 261.694 378.738C263.188 382.279 265.891 385.175 269.321 386.911C273.254 388.809 277.296 390.469 281.428 391.882L295.148 397.204L322.098 407.659L328.958 410.32C330.86 411.058 331.683 407.998 329.8 407.268Z" fill="#2F2E41"/>
<path d="M271.246 299.701C268.01 299.701 264.846 298.742 262.155 296.945C259.464 295.148 257.367 292.594 256.128 289.606C254.89 286.617 254.566 283.329 255.197 280.157C255.828 276.984 257.387 274.07 259.675 271.783C261.964 269.496 264.88 267.938 268.054 267.307C271.228 266.676 274.518 267 277.508 268.238C280.498 269.476 283.054 271.572 284.852 274.261C286.65 276.951 287.61 280.113 287.61 283.347C287.605 287.683 285.879 291.84 282.811 294.906C279.744 297.972 275.584 299.696 271.246 299.701ZM271.246 270.158C268.636 270.158 266.085 270.932 263.915 272.381C261.745 273.83 260.053 275.89 259.054 278.3C258.056 280.71 257.794 283.362 258.303 285.92C258.813 288.479 260.069 290.829 261.915 292.673C263.76 294.518 266.112 295.774 268.672 296.283C271.231 296.792 273.885 296.53 276.296 295.532C278.707 294.534 280.768 292.843 282.218 290.675C283.668 288.506 284.442 285.956 284.442 283.347C284.438 279.85 283.047 276.498 280.573 274.026C278.099 271.553 274.745 270.162 271.246 270.158V270.158Z" fill="#2F2E41"/>
<path d="M544.783 401.05L509.365 373.977L482.277 409.375L517.695 436.448L544.783 401.05Z" fill="#F0F0F0"/>
<path d="M344.617 159.372C350.213 159.367 355.733 160.673 360.733 163.183C365.734 165.694 370.077 169.34 373.414 173.829L394.095 146.804L332.042 99.3704L284.583 161.389L311.327 181.832C314.004 175.198 318.603 169.515 324.535 165.513C330.467 161.511 337.46 159.372 344.617 159.372V159.372Z" fill="#F0F0F0"/>
<path d="M939.722 685.872H194.396C194.116 685.872 193.847 685.76 193.649 685.563C193.451 685.365 193.34 685.096 193.34 684.816C193.34 684.537 193.451 684.268 193.649 684.07C193.847 683.873 194.116 683.761 194.396 683.761H939.722C940.002 683.761 940.271 683.873 940.469 684.07C940.667 684.268 940.778 684.537 940.778 684.816C940.778 685.096 940.667 685.365 940.469 685.563C940.271 685.76 940.002 685.872 939.722 685.872Z" fill="#3F3D56"/>
<path d="M757.811 510.796H681.946C679.147 510.793 676.464 509.681 674.485 507.703C672.506 505.725 671.393 503.043 671.389 500.245V494.993C671.393 492.196 672.506 489.514 674.485 487.536C676.464 485.558 679.147 484.446 681.946 484.442H757.811C760.61 484.446 763.294 485.558 765.273 487.536C767.252 489.514 768.365 492.196 768.368 494.993V500.245C768.365 503.043 767.252 505.725 765.273 507.703C763.294 509.681 760.61 510.793 757.811 510.796V510.796Z" fill="#307452"/>
<path d="M765.805 500.672H689.94C687.001 500.669 684.183 499.5 682.105 497.423C680.027 495.347 678.858 492.531 678.855 489.593V484.341C678.858 481.404 680.027 478.588 682.105 476.511C684.183 474.434 687.001 473.266 689.94 473.263H765.805C768.744 473.266 771.562 474.434 773.64 476.511C775.718 478.588 776.887 481.404 776.89 484.341V489.593C776.887 492.531 775.718 495.347 773.64 497.423C771.562 499.5 768.744 500.669 765.805 500.672V500.672ZM689.94 475.373C687.561 475.376 685.28 476.321 683.598 478.003C681.915 479.684 680.969 481.964 680.966 484.341V489.593C680.969 491.971 681.915 494.251 683.598 495.932C685.28 497.613 687.561 498.559 689.94 498.562H765.805C768.184 498.559 770.465 497.613 772.147 495.932C773.83 494.251 774.776 491.971 774.779 489.593V484.341C774.776 481.964 773.83 479.684 772.147 478.003C770.465 476.321 768.184 475.376 765.805 475.373H689.94Z" fill="#3F3D56"/>
</g>
<defs>
<clipPath id="clip0_27:27">
<rect width="747.438" height="586.501" fill="white" transform="translate(193.34 99.3704)"/>
</clipPath>
</defs>
</svg>
